<svg id="visual" viewBox="0 0 900 600" width="900" height="600" xmlns="http://www.w3.org/2000/svg" xmlns:xlink="http://www.w3.org/1999/xlink" version="1.1"><rect x="0" y="0" width="900" height="600" fill="#001220"></rect><path d="M0 443L21.5 433.2C43 423.3 86 403.7 128.8 401.8C171.7 400 214.3 416 257.2 414.5C300 413 343 394 385.8 386C428.7 378 471.3 381 514.2 393.3C557 405.7 600 427.3 642.8 433.8C685.7 440.3 728.3 431.7 771.2 425C814 418.3 857 413.7 878.5 411.3L900 409L900 601L878.5 601C857 601 814 601 771.2 601C728.3 601 685.7 601 642.8 601C600 601 557 601 514.2 601C471.3 601 428.7 601 385.8 601C343 601 300 601 257.2 601C214.3 601 171.7 601 128.8 601C86 601 43 601 21.5 601L0 601Z" fill="#fa7268"></path><path d="M0 396L21.5 407.5C43 419 86 442 128.8 447.2C171.7 452.3 214.3 439.7 257.2 430C300 420.3 343 413.7 385.8 418.3C428.7 423 471.3 439 514.2 443.8C557 448.7 600 442.3 642.8 432.7C685.7 423 728.3 410 771.2 406.5C814 403 857 409 878.5 412L900 415L900 601L878.5 601C857 601 814 601 771.2 601C728.3 601 685.7 601 642.8 601C600 601 557 601 514.2 601C471.3 601 428.7 601 385.8 601C343 601 300 601 257.2 601C214.3 601 171.7 601 128.8 601C86 601 43 601 21.5 601L0 601Z" fill="#ef5f67"></path><path d="M0 457L21.5 464.8C43 472.7 86 488.3 128.8 492.7C171.7 497 214.3 490 257.2 486C300 482 343 481 385.8 475.2C428.7 469.3 471.3 458.7 514.2 459.7C557 460.7 600 473.3 642.8 480.8C685.7 488.3 728.3 490.7 771.2 493.5C814 496.3 857 499.7 878.5 501.3L900 503L900 601L878.5 601C857 601 814 601 771.2 601C728.3 601 685.7 601 642.8 601C600 601 557 601 514.2 601C471.3 601 428.7 601 385.8 601C343 601 300 601 257.2 601C214.3 601 171.7 601 128.8 601C86 601 43 601 21.5 601L0 601Z" fill="#e34c67"></path><path d="M0 530L21.5 528C43 526 86 522 128.8 517C171.7 512 214.3 506 257.2 507.5C300 509 343 518 385.8 523.7C428.7 529.3 471.3 531.7 514.2 527.2C557 522.7 600 511.3 642.8 511C685.7 510.7 728.3 521.3 771.2 524.5C814 527.7 857 523.3 878.5 521.2L900 519L900 601L878.5 601C857 601 814 601 771.2 601C728.3 601 685.7 601 642.8 601C600 601 557 601 514.2 601C471.3 601 428.7 601 385.8 601C343 601 300 601 257.2 601C214.3 601 171.7 601 128.8 601C86 601 43 601 21.5 601L0 601Z" fill="#d53867"></path><path d="M0 548L21.5 545.2C43 542.3 86 536.7 128.8 539.5C171.7 542.3 214.3 553.7 257.2 552.8C300 552 343 539 385.8 532.8C428.7 526.7 471.3 527.3 514.2 530C557 532.7 600 537.3 642.8 540C685.7 542.7 728.3 543.3 771.2 547.2C814 551 857 558 878.5 561.5L900 565L900 601L878.5 601C857 601 814 601 771.2 601C728.3 601 685.7 601 642.8 601C600 601 557 601 514.2 601C471.3 601 428.7 601 385.8 601C343 601 300 601 257.2 601C214.3 601 171.7 601 128.8 601C86 601 43 601 21.5 601L0 601Z" fill="#c62368"></path></svg>